G04*
G04 #@! TF.GenerationSoftware,Altium Limited,Altium Designer,22.3.1 (43)*
G04*
G04 Layer_Color=32896*
%FSLAX25Y25*%
%MOIN*%
G70*
G04*
G04 #@! TF.SameCoordinates,E4ED8E47-D218-4FBD-A3A2-710C509649A8*
G04*
G04*
G04 #@! TF.FilePolarity,Positive*
G04*
G01*
G75*
%ADD13C,0.01000*%
D13*
X470747Y441880D02*
X474000D01*
Y437000D01*
X470747D01*
X474000Y439440D02*
X472373D01*
X465866Y441067D02*
X466679Y441880D01*
X468306D01*
X469120Y441067D01*
Y437813D01*
X468306Y437000D01*
X466679D01*
X465866Y437813D01*
X460986Y441880D02*
X464239D01*
Y437000D01*
X460986D01*
X464239Y439440D02*
X462613D01*
X459359Y437000D02*
Y441880D01*
X456106Y437000D01*
Y441880D01*
X454479Y439440D02*
X451225D01*
X446345Y441880D02*
X449598D01*
Y439440D01*
X447972Y440253D01*
X447158D01*
X446345Y439440D01*
Y437813D01*
X447158Y437000D01*
X448785D01*
X449598Y437813D01*
X441465Y441880D02*
X443091Y441067D01*
X444718Y439440D01*
Y437813D01*
X443905Y437000D01*
X442278D01*
X441465Y437813D01*
Y438627D01*
X442278Y439440D01*
X444718D01*
X439838Y437000D02*
X438211D01*
X439024D01*
Y441880D01*
X439838Y441067D01*
X435771D02*
X434958Y441880D01*
X433331D01*
X432517Y441067D01*
Y440253D01*
X433331Y439440D01*
X434144D01*
X433331D01*
X432517Y438627D01*
Y437813D01*
X433331Y437000D01*
X434958D01*
X435771Y437813D01*
X482000Y445000D02*
Y448999D01*
X480001Y450998D01*
X478001Y448999D01*
Y445000D01*
Y447999D01*
X482000D01*
X472003Y449998D02*
X473003Y450998D01*
X475002D01*
X476002Y449998D01*
Y446000D01*
X475002Y445000D01*
X473003D01*
X472003Y446000D01*
X464006Y450998D02*
Y445000D01*
X461007D01*
X460007Y446000D01*
Y449998D01*
X461007Y450998D01*
X464006D01*
X458008Y445000D02*
X456008D01*
X457008D01*
Y448999D01*
X458008D01*
X453009Y445000D02*
Y448999D01*
X452010D01*
X451010Y447999D01*
Y445000D01*
Y447999D01*
X450010Y448999D01*
X449011Y447999D01*
Y445000D01*
X447011D02*
Y448999D01*
X446012D01*
X445012Y447999D01*
Y445000D01*
Y447999D01*
X444012Y448999D01*
X443013Y447999D01*
Y445000D01*
X438014D02*
X440014D01*
X441013Y446000D01*
Y447999D01*
X440014Y448999D01*
X438014D01*
X437014Y447999D01*
Y446999D01*
X441013D01*
X435015Y448999D02*
Y445000D01*
Y446999D01*
X434016Y447999D01*
X433016Y448999D01*
X432016D01*
M02*
