M48
;Layer_Color=9474304
;FILE_FORMAT=2:5
INCH,LZ
;TYPE=PLATED
T1F00S00C0.03110
T2F00S00C0.03150
T3F00S00C0.03346
T4F00S00C0.03400
T5F00S00C0.03504
T6F00S00C0.03543
T7F00S00C0.04500
%
T01
X053726Y0396961
Y0417039
X056974
Y0396961
T02
X04705Y0355
Y0365
Y0375
X05105
Y0365
Y0355
X05765Y03605
X05715Y0368
X05815
T03
X0438Y03525
X04485
X0459
Y03925
X04485
X0438
X0489Y03875
X05195Y03825
X052Y0364
Y0346
X056
Y0364
X05595Y03825
X05805Y03945
Y04345
X0489Y04275
T04
X051Y03935
X052
Y04235
X051
T05
X05035Y0448
X0542
X05805
T06
X0597Y0377
Y0387
Y0397
Y0407
Y0417
T07
X04505Y04045
X04605
X04705
M30
