G04*
G04 #@! TF.GenerationSoftware,Altium Limited,Altium Designer,22.3.1 (43)*
G04*
G04 Layer_Physical_Order=2*
G04 Layer_Color=16711680*
%FSLAX25Y25*%
%MOIN*%
G70*
G04*
G04 #@! TF.SameCoordinates,E4ED8E47-D218-4FBD-A3A2-710C509649A8*
G04*
G04*
G04 #@! TF.FilePolarity,Positive*
G04*
G01*
G75*
%ADD13C,0.01000*%
%ADD16C,0.05400*%
%ADD17R,0.05400X0.05400*%
%ADD26C,0.03008*%
%ADD27C,0.05150*%
%ADD28R,0.06500X0.06500*%
%ADD29C,0.06500*%
%ADD30C,0.05512*%
%ADD31R,0.05906X0.05906*%
%ADD32C,0.05906*%
%ADD33R,0.04882X0.04882*%
%ADD34C,0.04488*%
%ADD35R,0.04488X0.04488*%
D13*
X427000Y444250D02*
Y450500D01*
Y340500D02*
Y444250D01*
Y450500D02*
Y451500D01*
Y457000D01*
X603500D01*
Y340500D02*
Y457000D01*
X427000Y340500D02*
X603500D01*
D16*
X510000Y423500D02*
D03*
X520000D02*
D03*
Y393500D02*
D03*
D17*
X510000D02*
D03*
D26*
X523461Y396961D02*
X537260D01*
X520000Y393500D02*
X523461Y396961D01*
X480500Y391500D02*
X484800Y395800D01*
X494700D01*
X480500Y367000D02*
Y391500D01*
X477782Y364282D02*
X480500Y367000D01*
X494700Y395800D02*
X503204Y387296D01*
X514704D01*
X519500Y382500D01*
X510000Y418500D02*
X521500Y407000D01*
X510000Y418500D02*
Y423500D01*
X521500Y407000D02*
X587000D01*
X510500Y382500D02*
X516000Y377000D01*
X494000Y382500D02*
X510500D01*
X489000Y387500D02*
X494000Y382500D01*
X516000Y377000D02*
X597000D01*
X472732Y364282D02*
X477782D01*
X470910Y364590D02*
X472424D01*
X470500Y365000D02*
X470910Y364590D01*
X472424D02*
X472732Y364282D01*
X448500Y352500D02*
X456500Y344500D01*
X500000D02*
X510500Y355000D01*
X456500Y344500D02*
X500000D01*
X520000Y364000D02*
X531500D01*
X549500Y346000D02*
X560000D01*
X531500Y364000D02*
X549500Y346000D01*
X572201Y394500D02*
X580500D01*
X569740Y396961D02*
X572201Y394500D01*
X459000Y352500D02*
X461579Y349921D01*
X485421D01*
X510500Y375000D01*
X450500Y404500D02*
X481900Y435900D01*
X529900D01*
X542000Y448000D01*
X587000Y407000D02*
X597000Y397000D01*
X493000Y423500D02*
X510000D01*
X489000Y427500D02*
X493000Y423500D01*
X590500D02*
X597000Y417000D01*
X520000Y423500D02*
X590500D01*
X576500Y352500D02*
Y360500D01*
X570000Y346000D02*
X576500Y352500D01*
X560000Y346000D02*
X570000D01*
X438000Y392500D02*
X448500D01*
D27*
X571500Y368000D02*
D03*
X576500Y360500D02*
D03*
X581500Y368000D02*
D03*
X470500Y375000D02*
D03*
Y365000D02*
D03*
Y355000D02*
D03*
X510500D02*
D03*
Y365000D02*
D03*
Y375000D02*
D03*
D28*
X450500Y404500D02*
D03*
D29*
X460500D02*
D03*
X470500D02*
D03*
D30*
X520000Y346000D02*
D03*
X560000D02*
D03*
Y364000D02*
D03*
X520000D02*
D03*
X559500Y382500D02*
D03*
X519500D02*
D03*
X580500Y394500D02*
D03*
Y434500D02*
D03*
X459000Y352500D02*
D03*
Y392500D02*
D03*
X489000Y427500D02*
D03*
Y387500D02*
D03*
X438000Y352500D02*
D03*
Y392500D02*
D03*
X448500Y352500D02*
D03*
Y392500D02*
D03*
D31*
X597000Y377000D02*
D03*
D32*
Y387000D02*
D03*
Y397000D02*
D03*
Y407000D02*
D03*
Y417000D02*
D03*
D33*
X580500Y448000D02*
D03*
X542000D02*
D03*
X503500D02*
D03*
D34*
X569740Y417039D02*
D03*
Y396961D02*
D03*
X537260D02*
D03*
D35*
Y417039D02*
D03*
M02*
